<svg width="86" height="21" viewBox="0 0 86 21" fill="none" xmlns="http://www.w3.org/2000/svg">
<path d="M0.73125 20.2783V0.778319H4.23125V17.4533H12.9063V20.2783H0.73125ZM27.6195 20.6283C25.6029 20.6283 23.9195 20.22 22.5695 19.4033C21.2362 18.57 20.2362 17.395 19.5695 15.8783C18.9195 14.3617 18.5945 12.5783 18.5945 10.5283C18.5945 8.46165 18.9195 6.67832 19.5695 5.17832C20.2362 3.66165 21.2362 2.49499 22.5695 1.67832C23.9195 0.844986 25.6029 0.42832 27.6195 0.42832C29.6695 0.42832 31.3612 0.844986 32.6945 1.67832C34.0279 2.49499 35.0195 3.66165 35.6695 5.17832C36.3362 6.67832 36.6695 8.46165 36.6695 10.5283C36.6695 12.5783 36.3362 14.3617 35.6695 15.8783C35.0195 17.395 34.0279 18.57 32.6945 19.4033C31.3612 20.22 29.6695 20.6283 27.6195 20.6283ZM27.6195 17.9283C29.4862 17.9283 30.8612 17.2867 31.7445 16.0033C32.6279 14.7033 33.0695 12.8783 33.0695 10.5283C33.0695 8.17832 32.6279 6.36165 31.7445 5.07832C30.8612 3.77832 29.4862 3.12832 27.6195 3.12832C25.7695 3.12832 24.4029 3.77832 23.5195 5.07832C22.6362 6.36165 22.1945 8.17832 22.1945 10.5283C22.1945 12.8783 22.6362 14.7033 23.5195 16.0033C24.4029 17.2867 25.7695 17.9283 27.6195 17.9283ZM51.6828 20.6283C49.8661 20.6283 48.3328 20.2033 47.0828 19.3533C45.8328 18.5033 44.8828 17.3117 44.2328 15.7783C43.5828 14.245 43.2578 12.4783 43.2578 10.4783C43.2578 8.44499 43.5828 6.67832 44.2328 5.17832C44.8995 3.66165 45.8911 2.49499 47.2078 1.67832C48.5411 0.844986 50.1911 0.42832 52.1578 0.42832C53.7911 0.42832 55.1745 0.711653 56.3078 1.27832C57.4411 1.84499 58.3328 2.64499 58.9828 3.67832C59.6328 4.69499 60.0495 5.89499 60.2328 7.27832H56.8328C56.6328 5.94499 56.1328 4.91999 55.3328 4.20332C54.5328 3.48665 53.4495 3.12832 52.0828 3.12832C50.2828 3.12832 48.9495 3.77832 48.0828 5.07832C47.2161 6.37832 46.7828 8.17832 46.7828 10.4783C46.7828 12.8617 47.2411 14.7117 48.1578 16.0283C49.0745 17.3283 50.4161 17.9783 52.1828 17.9783C53.6661 17.9783 54.8161 17.545 55.6328 16.6783C56.4661 15.795 56.9245 14.5867 57.0078 13.0533H51.0828V10.4033H60.2578V20.2783H57.6078V17.9533H57.0078C56.6578 18.67 56.0661 19.295 55.2328 19.8283C54.4161 20.3617 53.2328 20.6283 51.6828 20.6283ZM76.7117 20.6283C74.6951 20.6283 73.0117 20.22 71.6617 19.4033C70.3284 18.57 69.3284 17.395 68.6617 15.8783C68.0117 14.3617 67.6867 12.5783 67.6867 10.5283C67.6867 8.46165 68.0117 6.67832 68.6617 5.17832C69.3284 3.66165 70.3284 2.49499 71.6617 1.67832C73.0117 0.844986 74.6951 0.42832 76.7117 0.42832C78.7617 0.42832 80.4534 0.844986 81.7867 1.67832C83.1201 2.49499 84.1117 3.66165 84.7617 5.17832C85.4284 6.67832 85.7617 8.46165 85.7617 10.5283C85.7617 12.5783 85.4284 14.3617 84.7617 15.8783C84.1117 17.395 83.1201 18.57 81.7867 19.4033C80.4534 20.22 78.7617 20.6283 76.7117 20.6283ZM76.7117 17.9283C78.5784 17.9283 79.9534 17.2867 80.8367 16.0033C81.7201 14.7033 82.1617 12.8783 82.1617 10.5283C82.1617 8.17832 81.7201 6.36165 80.8367 5.07832C79.9534 3.77832 78.5784 3.12832 76.7117 3.12832C74.8617 3.12832 73.4951 3.77832 72.6117 5.07832C71.7284 6.36165 71.2867 8.17832 71.2867 10.5283C71.2867 12.8783 71.7284 14.7033 72.6117 16.0033C73.4951 17.2867 74.8617 17.9283 76.7117 17.9283Z" fill="white"/>
</svg>
